<?xml version="1.0" encoding="UTF-8"?>
<!DOCTYPE svg PUBLIC "-//W3C//DTD SVG 1.1//EN" "http://www.w3.org/Graphics/SVG/1.1/DTD/svg11.dtd">
<!-- Creator: CorelDRAW 2021 (64-Bit) -->
<svg xmlns="http://www.w3.org/2000/svg" xml:space="preserve" width="70mm" height="70mm" version="1.1" style="shape-rendering:geometricPrecision; text-rendering:geometricPrecision; image-rendering:optimizeQuality; fill-rule:evenodd; clip-rule:evenodd"
viewBox="0 0 7000 7000"
 xmlns:xlink="http://www.w3.org/1999/xlink"
 xmlns:xodm="http://www.corel.com/coreldraw/odm/2003">
 <defs>
  <style type="text/css">
   <![CDATA[
    .fil0 {fill:black;fill-rule:nonzero}
   ]]>
  </style>
 </defs>
 <g id="Warstwa_x0020_1">
  <metadata id="CorelCorpID_0Corel-Layer"/>
  <path class="fil0" d="M4403.17 2281.41c-192.2,-266.2 -498.11,-441.25 -850.97,-441.25 -440.97,0 -957.81,437.34 -1053.58,869.28 61.42,-522.29 -303.64,-1375.3 -1241.55,-1456.62 -773.51,-65.05 -1196.38,816.86 -1174.68,1416.85 72.29,1879.48 2750.55,3213.18 2765.01,3213.18 13.65,0 -511.16,-876.17 1066.83,-1946.97 1086.41,791.09 743.37,1429.77 734.98,1460.78l3.2 0c89.02,-39.74 2126.75,-1081 2181.68,-2537.78 18.07,-473.5 -316.26,-1172.89 -927.09,-1120.5 -742.78,63.25 -1031.92,737.36 -983.12,1151.19 -53.65,-242.65 -273.34,-486.16 -520.71,-608.16z"/>
 </g>
</svg>
