<?xml version="1.0" encoding="UTF-8"?>
<!DOCTYPE svg PUBLIC "-//W3C//DTD SVG 1.1//EN" "http://www.w3.org/Graphics/SVG/1.1/DTD/svg11.dtd">
<!-- Creator: CorelDRAW 2021 (64-Bit) -->
<svg xmlns="http://www.w3.org/2000/svg" xml:space="preserve" width="70mm" height="70mm" version="1.1" style="shape-rendering:geometricPrecision; text-rendering:geometricPrecision; image-rendering:optimizeQuality; fill-rule:evenodd; clip-rule:evenodd"
viewBox="0 0 7000 7000"
 xmlns:xlink="http://www.w3.org/1999/xlink"
 xmlns:xodm="http://www.corel.com/coreldraw/odm/2003">
 <defs>
  <style type="text/css">
   <![CDATA[
    .fil0 {fill:black;fill-rule:nonzero}
   ]]>
  </style>
 </defs>
 <g id="Warstwa_x0020_1">
  <metadata id="CorelCorpID_0Corel-Layer"/>
  <path class="fil0" d="M2538.8 5829.49c-242.62,-31.28 -465.97,-41.93 -680.12,-91.75 -851.51,-197.76 -1494.62,-922.69 -1618.38,-1790.65 -161.46,-1127.55 589.05,-2260.84 1817.6,-2441.53 810.26,-119.53 1488.92,157.24 2011.75,791.09 72.59,88.2 140.9,125.23 257.56,123.77 1104.78,-11.39 2020.99,744.87 2197.45,1839 210.55,1305.42 -727.02,2393.91 -1895.83,2521.95 -853.65,93.9 -1536.59,-222.67 -2053.06,-904.93 -17.8,-23.45 -36.29,-46.22 -36.97,-46.95zm589 -150.08c443.19,526.44 1323.9,734.17 2041.67,332.23 709.27,-397.71 1035.75,-1249.96 769.01,-2016.87 -228.36,-658.03 -971.78,-1200.87 -1530.18,-1109.06 197.76,561.99 183.51,1117.62 -64.02,1660.41 -248.31,542.83 -666.6,909.21 -1216.48,1133.29zm465.23 -3128.81c-314.42,-446.01 -1124.67,-811.72 -1917.18,-418.29 -721.32,357.82 -1058.51,1183.07 -799.55,1944.29 199.9,586.91 898.46,1125.46 1348.03,1039.35 -244.71,-1248.49 455.31,-2208.94 1368.7,-2565.35zm431.82 -112.38c-539.91,-797.51 -1751.43,-1141.12 -2721.75,-539.96 -969.58,601.11 -1262.7,1861.05 -660.86,2832.82 592.55,956.16 1862.41,1252.1 2822.07,650.93 1027.91,-643.09 1133.19,-1877.38 791.04,-2519.08 -91.07,13.53 -186.38,28.47 -296.67,44.81 163.61,457.45 170.03,897.78 -19.21,1329.65 -192.07,437.5 -515,743.41 -961.75,914.85 -754.07,289.57 -1634.77,-6.42 -2061.57,-722.06 -396.26,-664.45 -305.24,-1592.89 348.57,-2158.43 311.55,-269.62 675.79,-411.92 1084.83,-416.88 562.68,-6.43 1022.95,225.48 1379.36,654.48 103.14,-24.91 193.48,-46.95 295.94,-71.13zm-1345.21 3364.28c384.14,640.22 1500.98,1231.41 2629.27,657.3 1007.28,-512.19 1416.33,-1735.82 926.91,-2752.45 -489.41,-1015.18 -1705.16,-1459.11 -2729.58,-990.27 -1087.7,497.3 -1390.01,1678.22 -1133.92,2426.65 89.61,7.1 180.69,9.24 272.44,-31.33 -13.48,-55.46 -24.86,-102.46 -35.57,-150.09 -264.6,-1112.66 557.72,-2190.45 1703.76,-2210.34 1158.15,-19.95 1944.23,988.12 1816.19,1990.5 -89.67,702.89 -465.29,1205.83 -1120.45,1464.79 -660.86,261.1 -1279.78,143.71 -1831.8,-308.05 -122.36,-188.52 -291.66,-182.1 -475.21,-113.11 -4.96,1.46 -7.84,5.01 -22.04,16.4zm1161.65 -2847.81c-1025.77,293.11 -1382.18,1486.88 -1053.55,2132.8 919.81,-219.12 1434.19,-1269.12 1053.55,-2132.8zm470.25 -741.28c-345.02,-424.71 -508.63,-877.88 -417.56,-1405.73 23.45,-134.47 79.64,-254 177.81,-351.44 170.03,-169.36 394.11,-162.93 539.24,26.99 79.68,104.6 135.87,227.69 208.46,352.18 28.41,-16.34 65.43,-36.97 102.41,-58.33 121.67,-70.44 250.39,-116.66 393.38,-110.97 233.37,9.24 383.45,174.26 369.25,408.32 -7.16,117.39 -47,226.22 -125.23,310.92 -110.29,118.8 -219.79,247.52 -354.26,331.5 -284.55,177.13 -584.77,327.26 -893.5,496.56zm11.38 -137.29c266.75,-143.71 524.3,-269.66 767.6,-418.33 128.04,-78.23 242.56,-187.11 343.56,-299.49 63.34,-69.72 106.74,-167.21 130.92,-259.7 44.12,-165.75 -68.31,-303.76 -239.75,-317.97 -106.69,-8.56 -207.74,17.08 -298.76,68.98 -63.34,36.3 -120.26,85.39 -179.27,129.51 -60.47,44.81 -93.21,39.12 -126.63,-28.46 -19.22,-39.84 -28.47,-84.65 -48.36,-123.81 -44.13,-88.2 -82.56,-180.69 -140.16,-258.91 -111.7,-155.1 -269.62,-155.83 -398.39,-12.85 -86.06,95.36 -127.32,212.75 -142.26,336.51 -51.95,432.55 76.09,816.73 331.5,1184.52zm0 0z"/>
 </g>
</svg>
