<?xml version="1.0" encoding="UTF-8"?>
<!DOCTYPE svg PUBLIC "-//W3C//DTD SVG 1.1//EN" "http://www.w3.org/Graphics/SVG/1.1/DTD/svg11.dtd">
<!-- Creator: CorelDRAW 2021 (64-Bit) -->
<svg xmlns="http://www.w3.org/2000/svg" xml:space="preserve" width="110mm" height="50mm" version="1.1" style="shape-rendering:geometricPrecision; text-rendering:geometricPrecision; image-rendering:optimizeQuality; fill-rule:evenodd; clip-rule:evenodd"
viewBox="0 0 11000 5000"
 xmlns:xlink="http://www.w3.org/1999/xlink"
 xmlns:xodm="http://www.corel.com/coreldraw/odm/2003">
 <defs>
  <style type="text/css">
   <![CDATA[
    .str0 {stroke:black;stroke-width:7.62;stroke-linecap:round;stroke-linejoin:round;stroke-miterlimit:22.9256}
    .fil0 {fill:none}
   ]]>
  </style>
 </defs>
 <g id="Warstwa_x0020_1">
  <metadata id="CorelCorpID_0Corel-Layer"/>
  <path class="fil0 str0" d="M7570.62 703.52c-116.42,-45.86 -222.25,-88.19 -359.83,-109.36 -127,-21.16 -246.95,-24.69 -352.78,-14.11 -194.03,17.64 -433.92,81.14 -656.17,236.36 -162.28,116.42 -285.75,261.06 -370.42,398.64 -45.86,74.09 -84.66,155.22 -116.41,243.42 -45.86,127 -59.97,229.3 -63.5,257.53 -17.64,134.05 -7.06,246.94 0,317.5 7.05,45.86 21.16,134.05 77.61,313.97 24.69,91.72 52.92,172.86 88.19,268.11 127,338.67 296.34,649.11 490.36,920.75 151.7,211.67 310.45,384.53 455.09,529.17 112.89,109.36 239.89,218.72 384.53,321.02 162.27,116.42 310.44,190.5 444.5,239.89 102.3,42.34 186.97,59.98 239.88,70.56 70.56,14.11 151.7,24.69 243.42,28.22 112.89,0 292.81,-10.58 522.11,-102.3 158.75,-59.98 313.97,-151.7 465.67,-261.06 67.03,-49.39 232.83,-172.86 458.61,-402.17 437.44,-444.5 924.28,-1114.77 1188.86,-2010.83 63.5,-218.72 123.47,-493.89 141.11,-691.44 3.53,-35.28 14.11,-162.28 -7.05,-292.81 -17.64,-130.53 -63.5,-215.19 -88.2,-261.06 -35.28,-56.44 -81.14,-116.41 -144.64,-172.86 -59.97,-52.91 -127,-91.72 -190.5,-123.47 -197.55,-95.25 -448.02,-134.05 -702.02,-95.25 -229.31,35.28 -448.03,116.42 -670.28,208.14 -10.59,3.53 -17.64,7.06 -21.17,10.58 0,0 -10.58,3.53 -10.58,3.53 0,0 -17.64,7.06 -17.64,7.06 -10.58,3.52 -24.7,10.58 -28.22,10.58 0,0 -17.64,10.58 -17.64,10.58 -14.11,3.53 -35.28,14.11 -35.28,14.11 0,0 -17.64,7.06 -17.64,7.06 -38.8,17.64 -42.33,17.64 -42.33,17.64 0,0 -24.7,14.11 -24.7,14.11 0,0 -3.52,0 -24.69,7.06 -7.06,7.05 -3.53,3.52 -17.64,10.58 0,0 -14.11,3.53 -17.64,7.05 0,0 -3.53,0 -3.53,0 -3.52,3.53 -10.58,7.06 -21.16,10.59 -14.11,3.53 -31.75,14.11 -49.39,21.16 -3.53,0 -10.59,3.53 -17.64,7.06 -250.47,102.31 -430.39,158.75 -613.83,155.22 -17.64,0 -31.75,0 -49.39,0 -74.09,-7.05 -137.59,-21.16 -179.92,-35.28 -84.67,-24.69 -172.86,-59.97 -222.25,-77.61 -10.58,-3.52 -31.75,-14.11 -45.86,-17.64z"/>
  <path class="fil0 str0" d="M3407.84 673.5c116.42,-45.86 218.72,-84.67 359.83,-109.36 123.48,-21.17 243.42,-21.17 349.25,-10.59 194.03,17.64 437.45,81.14 656.17,236.36 162.28,116.42 285.75,257.53 370.42,395.11 45.86,77.62 84.66,158.75 116.41,243.42 45.87,130.53 59.98,229.31 63.5,257.53 21.17,137.58 10.59,246.94 0,321.03 -7.05,45.86 -21.16,134.05 -77.61,313.97 -24.69,88.19 -52.91,172.86 -88.19,264.58 -127,338.67 -296.33,649.11 -490.36,920.75 -151.7,215.2 -306.92,388.06 -455.09,532.7 -109.36,109.36 -236.36,218.72 -384.52,321.02 -162.28,112.89 -310.45,190.5 -440.98,239.89 -105.83,38.81 -190.5,59.98 -239.88,70.56 -74.09,14.11 -155.23,24.69 -246.95,28.22 -112.89,0 -292.8,-10.58 -518.58,-102.3 -162.28,-59.98 -317.5,-151.7 -465.67,-261.06 -70.55,-49.39 -236.36,-172.86 -462.14,-402.17 -437.44,-444.5 -920.75,-1118.3 -1185.33,-2014.36 -63.5,-215.19 -127,-493.89 -144.64,-687.91 -3.53,-38.81 -14.11,-162.28 7.06,-292.81 21.16,-130.53 63.5,-215.19 88.19,-261.06 35.28,-59.97 81.14,-119.94 144.64,-172.86 59.97,-52.91 127,-95.25 194.03,-127 194.02,-91.72 448.02,-130.52 698.5,-91.72 229.3,31.75 448.02,112.89 673.8,208.14 7.06,3.53 14.11,7.06 17.64,10.58 3.53,0 14.11,3.53 14.11,3.53 0,0 17.64,7.06 17.64,7.06 7.06,3.52 24.7,10.58 24.7,10.58 0,0 17.63,10.58 17.63,10.58 14.12,3.53 35.28,14.11 35.28,14.11 0,0 17.64,7.06 17.64,7.06 38.81,17.64 42.33,17.64 42.33,17.64 0,0 24.7,10.58 24.7,10.58 0,0 3.53,3.53 24.69,10.59 10.59,3.52 3.53,3.52 17.64,7.05 3.53,3.53 14.11,7.06 21.17,10.58 0,0 0,0 3.53,0 0,0 7.05,3.53 17.64,10.59 14.11,3.53 31.75,10.58 49.38,17.64 3.53,3.52 10.59,7.05 17.64,7.05 250.48,105.84 430.39,162.28 613.84,158.75 17.64,0 35.27,0 49.39,0 74.08,-7.05 137.58,-21.16 179.91,-35.28 88.2,-24.69 176.39,-59.97 225.78,-77.61 10.58,-7.05 28.22,-14.11 45.86,-21.16z"/>
 </g>
</svg>
