<?xml version="1.0" encoding="UTF-8"?>
<!DOCTYPE svg PUBLIC "-//W3C//DTD SVG 1.1//EN" "http://www.w3.org/Graphics/SVG/1.1/DTD/svg11.dtd">
<!-- Creator: CorelDRAW 2021 (64-Bit) -->
<svg xmlns="http://www.w3.org/2000/svg" xml:space="preserve" width="70mm" height="70mm" version="1.1" style="shape-rendering:geometricPrecision; text-rendering:geometricPrecision; image-rendering:optimizeQuality; fill-rule:evenodd; clip-rule:evenodd"
viewBox="0 0 7000 7000"
 xmlns:xlink="http://www.w3.org/1999/xlink"
 xmlns:xodm="http://www.corel.com/coreldraw/odm/2003">
 <defs>
  <style type="text/css">
   <![CDATA[
    .fil0 {fill:black}
   ]]>
  </style>
 </defs>
 <g id="Warstwa_x0020_1">
  <metadata id="CorelCorpID_0Corel-Layer"/>
  <path class="fil0" d="M3307.78 1258.18c214.51,-377.03 541.72,-609.64 973.11,-692.75 261.45,-50.36 525.37,-51.97 786.69,-0.06 259.56,51.55 503.67,153.23 729.41,290.4 820.82,498.77 1046.27,1404.66 662.53,2266.48 -308.87,693.69 -786.12,1273.22 -1378.68,1743.23 -792.2,628.35 -1627.6,1198.96 -2443.93,1794.86 -55.92,40.82 -121.23,63.51 -187.47,33.2 -51.51,-23.58 -89.89,-73.29 -120.79,-119.17 -35.38,-52.54 -72.41,-114.61 -77.85,-179.02 -6.97,-82.48 39.26,-142.79 105.4,-186.77 234.07,-155.65 472.91,-304.09 705.45,-462.06 753.53,-511.89 1498.93,-1041.79 2143.63,-1689.49 434.15,-436.18 792.99,-924.49 998.01,-1509.76 117.2,-334.57 131.88,-692.72 -63.46,-1001.35 -177.29,-280.09 -483.13,-448.16 -797.24,-529.12 -305.38,-78.7 -614.3,-73.6 -917.54,12.78 -481.38,137.12 -767.15,459.17 -898.91,936.55l-9.81 35.53 -35.98 -7.99c-167.16,-37.14 -255.41,-150.59 -310.37,-304.04 -113.68,-317.42 -332.66,-581.2 -640.1,-725.66 -308.73,-145.08 -657.58,-144.74 -976.47,-32.22 -434.56,153.35 -779.27,467.55 -956.29,893.77 -181.89,437.97 -158.27,923.04 23.08,1357.01 206.62,494.41 546.04,905.51 882.07,1316.08 313.08,382.54 615.93,773.34 913.99,1167.66 71.94,95.16 99.81,213.22 147.43,320.62l12.55 28.31 -24.83 18.5c-18.8,14.01 -37.55,28.11 -56.34,42.14l-23.44 17.51 -23.27 -17.73c-70.37,-53.6 -152.2,-92.93 -208.28,-163.74 -452.41,-571.28 -901.9,-1144.89 -1347.05,-1721.85 -366.88,-475.52 -656.58,-983.48 -759.99,-1582.47 -70.7,-409.59 -25.74,-834.69 152.46,-1212.05 171.36,-362.86 453.71,-654.07 816.76,-827.96 323.62,-155 687.57,-190.04 1036.33,-109.4 373.25,86.3 704.94,295.31 967.64,571.16 70.02,73.53 135.26,151.82 201.55,228.87z"/>
 </g>
</svg>
