<?xml version="1.0" encoding="utf-8"?><!-- Uploaded to: SVG Repo, www.svgrepo.com, Generator: SVG Repo Mixer Tools -->
<svg width="800px" height="800px" viewBox="0 0 960 960" fill="none" xmlns="http://www.w3.org/2000/svg">
<path d="M843.04 801.219C861.764 803.115 881.384 800.711 899.533 805.946C922.993 812.183 926.747 845.612 904.234 855.51C865.87 873.664 823.414 882.1 782.813 893.977C755.428 898.833 648.864 935.541 675.516 874.107C704.28 843.075 747.786 834.29 727.373 781.243C722.008 748.275 695.961 727.57 675.28 703.404C633.125 652.631 567.327 617.975 547.006 552.402C528.35 499.134 518.4 443.492 509.975 387.846C506.191 363.134 508.837 328.606 537.994 321.264C608.033 301.442 678.123 278.853 750.058 267.449C805.903 261.428 814.655 423.299 818.296 464.709C823.109 573.631 741.536 677.497 790.393 785.354C796.757 812.762 822.039 799.504 843.001 802.105C843.013 801.81 843.026 801.514 843.04 801.219ZM557.635 457.393C643.641 470.073 685.789 472.833 767.18 438.676C780.194 439.477 762.866 385.379 762.963 374.98C759.376 356.8 755.234 338.715 750.772 320.729C748.074 309.855 743.335 306.85 732.551 308.331C672.694 318.802 615.168 340.549 556.727 357.01C548.71 359.421 544.887 364.733 545.989 372.964C549.775 401.251 553.772 429.509 557.635 457.393ZM597.726 507.965C583.376 507.825 573.949 522.399 580.223 536.352C587.825 550.106 598.147 580.001 618.146 569.891C635.115 560.47 620.254 537.82 617.195 523.582C614.312 514.185 606.775 508.054 597.726 507.965Z" fill="#000000"/>
<path d="M78.277 772.25C140.719 777.814 146.259 757.327 163.067 703.538C161.849 640.131 150.728 575.88 139.189 513.282C132.065 430.407 182.26 353.561 218.915 282.468C231.942 262.91 252.137 238.237 278.659 250.426C345.663 277.07 413.905 300.629 479.642 330.363C531.109 362.61 432.193 511.377 405.421 547.577C338.759 629.936 215.964 668.514 199.248 785.931C198.757 803.261 263.369 831.392 275.795 854.144C292.253 871.915 274.716 903.969 250.929 897.315C234.26 893.686 217.843 888.477 201.743 882.746C170.821 867.928 31.143 829.827 40.737 790.991C44.305 773.329 63.622 772.405 78.216 771.18C78.237 771.536 78.257 771.893 78.277 772.25ZM189.952 425.9C289.234 471.448 313.278 466.157 415.508 441.118C426.686 438.945 430.485 415.146 436.929 405.877C440.729 391.506 461.757 368.185 443.145 357.748C391.175 330.989 334.851 314.464 280.586 293.13C262.044 286.145 258.795 286.209 249.003 303.665C226.854 343.483 207.104 383.404 189.952 425.9ZM222.97 563.112C220.293 541.608 216.474 519.857 213.695 498.317C212.095 486.5 204.523 478.697 194.374 479.298C184.219 479.9 176.743 488.341 177.508 500.354C179.64 524.919 180.012 550.62 191.689 572.957C199.722 588.521 224.102 581.239 222.97 563.112Z" fill="#000000"/>
<path d="M504.198 90.1643C573.278 0.754311 677.407 108.782 594.248 212.378C575.279 231.298 522.821 319.188 495.956 304.701C234.779 137.329 390.316 -29.9007 504.198 90.1643ZM505.077 264.806C542.794 232.066 576.975 194.919 592.99 147.11C604.525 92.8283 549.615 70.2003 529.979 130.945C524.285 150.15 503.513 168.416 488.166 146.502C432.695 41.3163 302.867 109.945 505.077 264.806Z" fill="#000000"/>
<path d="M459.015 570.893C450.753 601.452 382.676 694.491 348.506 663.233C345.639 657.438 347.35 650.768 354.335 645.218C382.533 622.813 404.463 595.401 421.666 563.84C432.551 544.05 456.749 550.897 459.015 570.893Z" fill="#000000"/>
<path d="M117.092 517.562C117.092 530.389 117.184 543.217 117.061 556.042C116.975 565.025 113.168 570.916 106.645 572.788C90.6779 577.663 83.1279 554.245 81.5049 541.64C81.1429 513.377 71.72 482.642 82.163 455.616C89.128 440.185 113.741 444.441 116.864 460.7C119.516 479.385 117.312 498.68 117.99 517.559C117.69 517.561 117.391 517.562 117.092 517.562Z" fill="#000000"/>
<path d="M888.428 509.674C884.51 530.946 887.989 555.291 874.153 573.317C866.2 584.375 846.477 576.869 847.207 563.347C849.502 534.928 848.023 506.3 848.449 477.824C849.864 458.45 875.621 452.764 883.104 471.615C887.727 483.579 886.89 496.866 886.761 509.502C887.317 509.56 887.873 509.617 888.428 509.674Z" fill="#000000"/>
<path d="M699.626 224.711C684.741 224.928 660.964 227.695 658.806 208.029C657.677 198.566 663.73 189.713 673.963 187.358C688.741 185.024 704.128 186.333 719.082 186.239C752.223 188.145 752.787 232.7 699.625 225.248C699.626 225.069 699.626 224.89 699.626 224.711Z" fill="#000000"/>
<path d="M270.763 202.625C232.581 210.023 221.092 168.725 255.537 163.867C270.128 165.121 286.569 162.265 299.637 170.007C312.818 177.38 308.33 199.71 293.286 201.229C285.886 202.393 278.297 202.365 270.791 202.859C270.782 202.781 270.773 202.703 270.763 202.625Z" fill="#000000"/>
<path d="M700.406 51.3929C723.788 49.5709 733.428 79.1999 714.312 89.2619C703.176 94.0809 691.037 97.2159 679.021 99.1429C662.711 101.429 654.253 75.5879 667.249 66.0579C677.304 57.1369 689.636 53.0879 700.406 51.3929Z" fill="#000000"/>
<path d="M316.608 93.316C312.164 120.772 285.852 100.773 274.486 89.995C259.25 77.328 279.965 51.637 294.999 64.277C302.509 72.712 314.305 82.038 316.608 93.316Z" fill="#000000"/>
<path d="M418.133 672.216C418.286 663.372 429.298 649.182 437.939 647.073C489.032 644.334 427.418 720.182 418.133 672.216Z" fill="#000000"/>
<path d="M557.637 457.393C553.774 429.509 549.777 401.25 545.991 372.964C544.889 364.733 548.712 359.421 556.73 357.012C615.17 340.548 672.696 318.803 732.552 308.328C743.337 306.85 748.076 309.855 750.773 320.729C755.236 338.716 759.377 356.801 762.961 374.981C766.544 393.154 769.184 411.512 772.449 429.751C773.311 434.567 772.355 436.977 767.182 438.682C685.804 472.839 643.535 470.067 557.637 457.393Z" fill="white"/>
<path d="M597.722 507.966C606.77 508.054 614.308 514.186 617.191 523.582C620.256 537.805 635.11 560.483 618.143 569.89C598.128 579.994 587.841 550.112 580.219 536.352C573.945 522.401 583.373 507.827 597.722 507.966Z" fill="white"/>
<path d="M189.953 425.898C207.102 383.406 226.856 343.476 249.005 303.663C258.797 286.207 262.045 286.143 280.587 293.129C334.852 314.461 391.175 330.987 443.143 357.745C461.842 368.18 440.63 391.502 436.93 405.873C430.558 415.134 426.59 438.952 415.511 441.123C313.331 466.185 289.008 471.381 189.953 425.898Z" fill="white"/>
<path d="M222.97 563.112C224.101 581.232 199.721 588.531 191.688 572.957C180.012 550.619 179.641 524.921 177.507 500.354C176.742 488.342 184.218 479.9 194.373 479.298C204.523 478.697 212.094 486.499 213.694 498.317C216.474 519.854 220.294 541.61 222.97 563.112Z" fill="white"/>
<path d="M505.074 264.807C302.698 109.727 432.887 41.4489 488.167 146.503C503.511 168.424 524.285 150.144 529.97 130.943C549.589 70.2259 604.527 92.8059 592.991 147.113C576.968 194.922 542.793 232.064 505.074 264.807Z" fill="white"/>
</svg>