<?xml version="1.0" encoding="UTF-8"?>
<!DOCTYPE svg PUBLIC "-//W3C//DTD SVG 1.1//EN" "http://www.w3.org/Graphics/SVG/1.1/DTD/svg11.dtd">
<!-- Creator: CorelDRAW 2021 (64-Bit) -->
<svg xmlns="http://www.w3.org/2000/svg" xml:space="preserve" width="70mm" height="70mm" version="1.1" style="shape-rendering:geometricPrecision; text-rendering:geometricPrecision; image-rendering:optimizeQuality; fill-rule:evenodd; clip-rule:evenodd"
viewBox="0 0 7000 7000"
 xmlns:xlink="http://www.w3.org/1999/xlink"
 xmlns:xodm="http://www.corel.com/coreldraw/odm/2003">
 <defs>
  <style type="text/css">
   <![CDATA[
    .fil0 {fill:black}
   ]]>
  </style>
 </defs>
 <g id="Warstwa_x0020_1">
  <metadata id="CorelCorpID_0Corel-Layer"/>
  <path class="fil0" d="M907 3977.38c-291.02,-263.16 -503.74,-605.2 -600.68,-986.14 -92.86,-364.91 -74.73,-749.44 67.8,-1099.09 142.58,-349.78 394.26,-624.6 715.21,-819.29 107.44,-65.17 221.81,-120.92 339.45,-165.16 54.12,-20.36 113.08,-40.56 169.57,-53.72 357.45,-83.26 731.33,-47.52 1071.06,88.82 336.36,134.97 628.42,362.35 849.63,648.23 221.21,-285.88 513.3,-513.26 849.67,-648.24 339.4,-136.2 713.83,-172.02 1070.95,-88.8 53.49,12.46 109.2,31.35 160.55,50.38 117.57,43.56 231.98,98.68 339.5,163.14 325.01,194.83 580.24,471.45 724.18,824.65 143.09,351.07 161.27,736.67 67.37,1102.81 -97.31,379.48 -309.84,720.51 -600.27,982.43l-2506.43 2502.4 -0.72 0.65c-28.77,26 -67,40.84 -105.84,40.6 -38.19,-0.24 -75.55,-15.04 -103.8,-40.63l-0.69 -0.63 -2506.51 -2502.41zm2612.04 2221.7l2423.56 -2419.56 2.62 -2.44c250.48,-225.06 435.05,-517.83 519.99,-844.06 81.01,-311.09 67.26,-639.25 -54.46,-937.89 -121.45,-297.95 -337.06,-530.47 -611.2,-694.7 -91.37,-54.75 -188.63,-101.59 -288.54,-138.6 -42.56,-15.77 -89.05,-31.64 -133.39,-41.98 -324.75,-75.69 -663.58,-34.3 -966.88,101.49 -320.49,143.47 -588.63,384.63 -776.26,680.41l-115.44 181.99 -115.45 -181.99c-188.15,-296.62 -457.46,-537.77 -779.08,-681.03 -302.73,-134.84 -640.21,-176.54 -964.03,-100.87 -46.61,10.89 -95.36,27.6 -140.05,44.34 -99.95,37.45 -197.17,84.7 -288.48,139.94 -271.31,164.11 -484.22,395.44 -604.68,691 -121.73,298.64 -135.48,626.8 -54.47,937.9 84.94,326.22 269.51,618.99 519.76,843.84l0.96 0.9 4.22 4.07 2421.3 2417.24z"/>
 </g>
</svg>
