<?xml version="1.0" encoding="iso-8859-1"?>
<!-- Uploaded to: SVG Repo, www.svgrepo.com, Generator: SVG Repo Mixer Tools -->
<!DOCTYPE svg PUBLIC "-//W3C//DTD SVG 1.1//EN" "http://www.w3.org/Graphics/SVG/1.1/DTD/svg11.dtd">
<svg fill="#000000" version="1.1" id="Capa_1" xmlns="http://www.w3.org/2000/svg" xmlns:xlink="http://www.w3.org/1999/xlink" 
	 width="800px" height="800px" viewBox="0 0 439.961 439.961"
	 xml:space="preserve">
<g>
	<path d="M351.147,129.353c0-11.304-9.197-20.5-20.5-20.5c-11.305,0-20.947,9.196-20.947,20.5l-0.002,99.352
		c0,4.014-3.012,7.041-7.004,7.04c-3.986,0-6.994-3.017-6.994-7.015V46.379c0,0,0.48-21.581-20.5-21.581
		c-20.982,0-20.501,21.6-20.501,21.6V215.68c0.022,0.693-0.046,3.013-1.793,4.871c-0.892,0.946-2.528,2.074-5.28,2.074
		c-2.771,0-4.418-1.127-5.311-2.072c-1.729-1.832-1.805-4.103-1.784-4.774V20.5c0-11.304-9.196-20.5-20.5-20.5
		c-11.303,0-20.5,9.196-20.5,20.5v195.643c0.038,0.763-0.002,3.094-1.725,4.976c-0.892,0.973-2.544,2.133-5.357,2.133
		c-2.751,0-4.386-1.136-5.272-2.088c-1.749-1.879-1.807-4.229-1.777-4.956l-0.034-170.707c0-11.304-9.198-20.5-20.501-20.5
		c-11.304,0-20.499,9.196-20.499,20.5v221.034c0.028,0.794-0.013,3.775-2.059,5.934c-0.868,0.916-2.429,2.01-4.931,2.01
		c-2.515,0-4.067-1.104-4.928-2.029c-1.998-2.148-2.007-5.098-1.964-5.942V196.92c0-11.488-9.349-20.834-20.837-20.834
		c-11.488,0-20.834,9.346-20.834,20.834v104.747c0,57.97,14.673,78.503,43.263,104.47c24.71,22.443,53.469,33.824,85.474,33.824
		l0.615-0.002c51.47-0.232,91.39-22.725,118.652-66.85c9.469-15.324,14.281-33.573,14.305-54.239L351.147,129.353z M254.693,263.505
		c8.642,0,13.853,14.007,13.853,21.67c0,7.642-6.199,13.863-13.853,13.863c-7.649,0-13.853-6.224-13.853-13.863
		C240.841,277.525,246.05,263.505,254.693,263.505z M219.907,263.505c8.643,0,13.852,14.007,13.852,21.67
		c0,7.642-6.199,13.863-13.852,13.863c-7.65,0-13.852-6.224-13.852-13.863C206.056,277.525,211.267,263.505,219.907,263.505z
		 M177.226,310.312c0-7.65,5.21-21.67,13.854-21.67c8.643,0,13.85,14.006,13.85,21.67c0,7.641-6.197,13.865-13.85,13.865
		C183.427,324.178,177.226,317.952,177.226,310.312z M284.243,357.964c-11.518,20.247-20.595,2.392-45.992,2.392
		c-25.42,0-33.868,18.072-45.996-2.392c-6.332-10.721,14.625-19.086,21.393-25.392c8.397-7.872,10.481-22.178,24.603-22.178
		c13.44,0,16.321,14.082,24.741,21.408C270.449,338.305,291.044,345.98,284.243,357.964z M283.521,324.178
		c-7.646,0-13.85-6.226-13.85-13.865c0-7.65,5.209-21.67,13.85-21.67c8.645,0,13.855,14.006,13.855,21.67
		C297.374,317.952,291.173,324.178,283.521,324.178z"/>
</g>
</svg>