<?xml version="1.0" encoding="iso-8859-1"?>
<!-- Uploaded to: SVG Repo, www.svgrepo.com, Generator: SVG Repo Mixer Tools -->
<!DOCTYPE svg PUBLIC "-//W3C//DTD SVG 1.1//EN" "http://www.w3.org/Graphics/SVG/1.1/DTD/svg11.dtd">
<svg fill="#000000" version="1.1" id="Capa_1" xmlns="http://www.w3.org/2000/svg" xmlns:xlink="http://www.w3.org/1999/xlink" 
	 width="800px" height="800px" viewBox="0 0 77.598 77.598"
	 xml:space="preserve">
<g>
	<g>
		<path d="M56.363,5.32c-1.595-1.074-5.167,3.368-6.948,7.389c-0.7,1.581-6.125,15.042-5.938,17.343
			c0.187,2.302,1.478,4.646,3.115,5.513c1.639,0.866,10.071-3.607,12.104-5.669S58.831,6.983,56.363,5.32z"/>
		<path d="M71.655,12.708C69.876,8.688,66.3,4.246,64.707,5.32c-2.468,1.665-4.363,22.513-2.336,24.575
			c2.03,2.062,10.466,6.533,12.105,5.669c1.641-0.864,2.932-3.211,3.116-5.513C77.78,27.751,72.357,14.287,71.655,12.708z"/>
		<path d="M69.399,40.657c-1.04-0.258-6.405,2.959-7.696,3.572c-1.287,0.616,1.4,4.275,2.97,4.772
			c1.013,0.321,3.282-0.309,4.416-1.508c0.447-0.475,2.409-4.501,2.288-5.188C71.259,41.62,70.439,40.917,69.399,40.657z"/>
		<path d="M51.673,40.657c-1.042,0.261-1.863,0.961-1.979,1.649c-0.123,0.687,1.845,4.715,2.285,5.188
			c1.132,1.199,3.403,1.829,4.419,1.508c1.569-0.497,4.259-4.156,2.968-4.772C58.076,43.616,52.716,40.399,51.673,40.657z"/>
		<path d="M21.237,28.676c-2.469,1.665-4.364,22.513-2.333,24.575c2.03,2.062,10.464,6.533,12.104,5.669s2.929-3.212,3.116-5.514
			c0.188-2.299-5.237-15.761-5.938-17.342C26.403,32.044,22.833,27.602,21.237,28.676z"/>
		<path d="M12.892,28.676c-1.593-1.074-5.17,3.368-6.949,7.388c-0.702,1.581-6.125,15.043-5.938,17.342
			c0.185,2.302,1.478,4.646,3.116,5.514c1.637,0.866,10.074-3.606,12.107-5.669C17.254,51.189,15.36,30.341,12.892,28.676z"/>
		<path d="M8.201,64.013c-1.039,0.26-1.861,0.96-1.981,1.649c-0.119,0.688,1.843,4.715,2.291,5.187c1.13,1.2,3.402,1.83,4.416,1.508
			c1.57-0.497,4.256-4.156,2.969-4.771C14.608,66.971,9.243,63.757,8.201,64.013z"/>
		<path d="M25.927,64.013c-1.042-0.258-6.402,2.958-7.694,3.572c-1.292,0.615,1.401,4.274,2.969,4.771
			c1.014,0.322,3.285-0.308,4.417-1.508c0.441-0.475,2.409-4.5,2.287-5.187C27.792,64.975,26.972,64.273,25.927,64.013z"/>
	</g>
</g>
</svg>