<?xml version="1.0" encoding="iso-8859-1"?>
<!-- Uploaded to: SVG Repo, www.svgrepo.com, Generator: SVG Repo Mixer Tools -->
<!DOCTYPE svg PUBLIC "-//W3C//DTD SVG 1.1//EN" "http://www.w3.org/Graphics/SVG/1.1/DTD/svg11.dtd">
<svg fill="#000000" height="800px" width="800px" version="1.1" id="Capa_1" xmlns="http://www.w3.org/2000/svg" xmlns:xlink="http://www.w3.org/1999/xlink" 
	 viewBox="0 0 494.902 494.902" xml:space="preserve">
<path d="M494.636,412.252l-9.779-35.205c-7.234-25.999-7.154-53.127,0.125-79.108c3.42-12.236,3.023-25.635-2.038-38.371
	c-3.69-9.298-9.991-18.536-17.823-26.558c-7.268-7.455-11.066-17.62-10.465-28.009l6.553-114.284
	c0.207-3.544-1.044-7.027-3.453-9.629c-2.42-2.614-5.791-4.125-9.336-4.204h-0.032c-4.275-0.085-8.324,1.914-10.843,5.373
	l-17.838,24.487l-4.891-29.535c-0.666-4.089-2.992-7.73-6.396-10.09c-3.418-2.35-7.645-3.213-11.711-2.389l-0.033,0.007
	c-4.892,0.987-8.992,4.314-10.967,8.896l-18.329,42.325c-8.136,18.764-5.669,40.441,6.471,56.903l27.336,37.08
	c-0.87,0.278-1.772,0.403-2.628,0.745c-3.006,1.194-5.646,3.024-8.246,4.881c-24.961-32.267-62.68-52.828-104.893-52.828
	c-75.155,0-136.094,65.167-136.094,145.559c0,35.646,12.121,68.152,32.034,93.437c-20.13-5.715-42.313-42.887-50.362-55.417
	c-6.576-10.237-39.143-77.868-114.269-19.217c-9.387,8.136-14.77,12.781-14.77,12.781c-2.278,1.99-2.628,5.448-0.741,7.852
	c1.945,2.47,5.54,2.898,8.025,0.952c0,0,5.569-4.399,15.338-12.087c4.999-3.536,53.403-47.402,90.483,19.852
	c6.425,11.655,37.366,74.021,77.741,74.021s212.037,0,212.037,0c0.221,0.007,0.522,0.007,0.746,0
	c8.955-0.207,16.047-7.63,15.844-16.582c-0.207-8.949-7.63-16.041-16.59-15.834c0,0-4.703,0.11-12.867,0.299
	c11.523-15.552,20.115-33.611,24.961-53.359c17.741,11.01,33.113,25.589,44.777,43.03l20.133,30.092
	c1.869,2.802,5.445,3.9,8.564,2.659C493.784,419.436,495.622,415.757,494.636,412.252z"/>
</svg>