<?xml version="1.0" encoding="iso-8859-1"?>
<!-- Uploaded to: SVG Repo, www.svgrepo.com, Generator: SVG Repo Mixer Tools -->
<!DOCTYPE svg PUBLIC "-//W3C//DTD SVG 1.1//EN" "http://www.w3.org/Graphics/SVG/1.1/DTD/svg11.dtd">
<svg fill="#000000" version="1.1" id="Capa_1" xmlns="http://www.w3.org/2000/svg" xmlns:xlink="http://www.w3.org/1999/xlink" 
	 width="800px" height="800px" viewBox="0 0 71.913 71.914"
	 xml:space="preserve">
<g>
	<g>
		<path d="M70.494,6.994c-2.992-0.383-2.985,5.027-3.442,10.477c-0.257,3.105-1.397,3.276-1.975,3.285
			c-0.598,0.009-1.554-0.737-1.144-4.339c0.691-6.108,2.044-14.672-1.151-14.77c-3.155-0.098-1.978,8.752-1.494,14.471
			c0.212,2.519-0.833,3.928-1.392,4.026c-0.62,0.107-1.243-0.892-1.501-4.149C57.914,9.929,59.304-0.42,55.861,0.013
			c-3.736,0.47-1.433,9.608-0.242,15.557c0.644,3.226,0.01,4.804-0.924,5.162c-0.903,0.344-1.329-0.821-1.831-3.301
			c-0.949-4.724-0.89-11.64-4.056-11.024c-3.98,0.771,1.006,9.71,2.461,14.391c0.847,2.719,0.488,5.012-0.445,5.721
			c-0.499,0.378-1.284-0.646-2.155-3.045c-1.672-4.599-1.484-12.555-4.961-11.083c-3.239,1.369,0.618,5.846,2.568,11.528
			c0.732,2.14,0.574,3.419,1.357,5.151c0.775,1.72,3.723,14.062,5.299,15.755c1.897,2.04,3.095,3.958,5.103,3.712
			c2.005-0.242,4.375-1.127,6.474-3.712c1.74-2.14,3.771-18.442,4.233-20.954c0.358-1.955-0.547-2.835,0.247-5.178
			C70.837,13.232,72.712,7.279,70.494,6.994z"/>
		<path d="M28.206,35.749c-3.476-1.471-3.289,6.485-4.961,11.084c-0.874,2.397-1.656,3.424-2.153,3.045
			c-0.935-0.712-1.292-3.002-0.447-5.721c1.455-4.681,6.443-13.625,2.462-14.392C19.939,29.149,20,36.066,19.049,40.79
			c-0.499,2.479-0.927,3.646-1.832,3.301c-0.932-0.358-1.567-1.938-0.923-5.162c1.191-5.946,3.495-15.084-0.243-15.557
			c-3.443-0.434-2.053,9.916-2.535,15.981c-0.256,3.257-0.88,4.256-1.5,4.149c-0.56-0.099-1.607-1.508-1.393-4.026
			c0.483-5.719,1.659-14.567-1.494-14.471c-3.196,0.098-1.845,8.661-1.152,14.77c0.408,3.602-0.544,4.35-1.142,4.339
			c-0.58-0.01-1.718-0.181-1.977-3.285c-0.455-5.45-0.446-10.86-3.441-10.477c-2.219,0.285-0.344,6.239,1.506,11.698
			c0.795,2.343-0.109,3.221,0.248,5.178c0.461,2.512,2.493,18.814,4.232,20.954c2.1,2.584,4.469,3.469,6.475,3.711
			c2.007,0.246,3.205-1.674,5.102-3.711c1.577-1.692,4.524-14.033,5.3-15.756c0.783-1.731,0.622-3.016,1.357-5.15
			C27.588,41.595,31.442,37.118,28.206,35.749z"/>
	</g>
</g>
</svg>