<?xml version="1.0" encoding="UTF-8"?>
<!DOCTYPE svg PUBLIC "-//W3C//DTD SVG 1.1//EN" "http://www.w3.org/Graphics/SVG/1.1/DTD/svg11.dtd">
<!-- Creator: CorelDRAW 2021 (64-Bit) -->
<svg xmlns="http://www.w3.org/2000/svg" xml:space="preserve" width="70mm" height="70mm" version="1.1" style="shape-rendering:geometricPrecision; text-rendering:geometricPrecision; image-rendering:optimizeQuality; fill-rule:evenodd; clip-rule:evenodd"
viewBox="0 0 7000 7000"
 xmlns:xlink="http://www.w3.org/1999/xlink"
 xmlns:xodm="http://www.corel.com/coreldraw/odm/2003">
 <defs>
  <style type="text/css">
   <![CDATA[
    .fil0 {fill:black;fill-rule:nonzero}
   ]]>
  </style>
 </defs>
 <g id="Warstwa_x0020_1">
  <metadata id="CorelCorpID_0Corel-Layer"/>
  <path class="fil0" d="M5891.81 400.64l-4652.13 0c-427.57,0 -779.07,351.02 -779.07,776.58l0 4630.79c0,425.67 351.5,780.33 779.07,780.33l2314.78 0 0 -2135.35 -764.35 0 0 -946.38 764.35 0 0 -785.75c0,-639.48 532,-1143.33 1174.37,-1143.33l791.14 0 0 958.51 -403.48 0c-213.96,0 -385.13,-28.2 -385.13,184.82l0 785.75 966.68 0 -387.72 946.38 -578.96 0 0 2135.35 1160.45 0c427.68,0 780.76,-354.66 780.76,-780.33l0 -4630.79c0,-425.56 -353.08,-776.58 -780.76,-776.58zm0 0z"/>
 </g>
</svg>
