<?xml version="1.0" encoding="iso-8859-1"?>
<!-- Uploaded to: SVG Repo, www.svgrepo.com, Generator: SVG Repo Mixer Tools -->
<svg fill="#000000" height="800px" width="800px" version="1.1" id="Layer_1" xmlns="http://www.w3.org/2000/svg" xmlns:xlink="http://www.w3.org/1999/xlink" 
	 viewBox="0 0 512 512" xml:space="preserve">
<g>
	<g>
		<path d="M200.498,202.715v106.569h111.003V202.715H200.498z M278.111,275.893h-44.22v-39.787h44.22V275.893z"/>
	</g>
</g>
<g>
	<g>
		<polygon points="0,206.704 0,305.297 66.884,305.297 66.884,271.905 66.884,240.096 66.884,206.704 		"/>
	</g>
</g>
<g>
	<g>
		<polygon points="445.116,206.704 445.116,240.096 445.116,271.905 445.116,305.297 512,305.297 512,206.704 		"/>
	</g>
</g>
<g>
	<g>
		<path d="M225.233,204.778l-98.178-53.936l-0.651-0.338c-14.718-7.264-32.119-6.931-46.547,0.89
			c-14.435,7.826-24.214,22.235-26.161,38.545c-2.327,19.508-3.507,41.735-3.507,66.061c0,24.327,1.181,46.553,3.507,66.063
			c1.947,16.309,11.726,30.719,26.161,38.544c7.506,4.069,15.816,6.112,24.137,6.112c7.671,0,15.35-1.737,22.411-5.221l0.329-0.163
			l98.5-54.112V204.778H225.233z"/>
	</g>
</g>
<g>
	<g>
		<path d="M458.305,189.937c-1.947-16.309-11.726-30.719-26.161-38.544c-14.427-7.821-31.829-8.154-46.547-0.89l-0.329,0.162
			l-98.5,54.112v102.445l98.178,53.936l0.651,0.338c7.061,3.485,14.739,5.221,22.411,5.221c8.32,0,16.63-2.042,24.138-6.112
			c14.435-7.826,24.214-22.235,26.161-38.545c2.327-19.508,3.507-41.735,3.507-66.061
			C461.813,231.673,460.632,209.447,458.305,189.937z"/>
	</g>
</g>
</svg>