<?xml version="1.0" ?>
<!-- Uploaded to: SVG Repo, www.svgrepo.com, Generator: SVG Repo Mixer Tools -->
<svg width="800px" height="800px" viewBox="0 -15 56 56" version="1.1" xmlns="http://www.w3.org/2000/svg" xmlns:xlink="http://www.w3.org/1999/xlink">
<title/>
<desc/>
<g fill="none" fill-rule="evenodd" id="Page-1" stroke="none" stroke-width="1">
<g fill="#000000" id="010---Bow-Tie">
<path d="M55.98,1.57 C56.0483739,1.21294343 55.9136822,0.847351711 55.63,0.62 C55.3129341,0.358198117 54.8743869,0.299983882 54.5,0.47 L33,9.66 L33,10.78 L36.8,10.02 C37.3412391,9.90954305 37.8695431,10.2587609 37.98,10.8 C38.0904569,11.3412391 37.7412391,11.8695431 37.2,11.98 L33,12.82 L33,13.26 L42.29,16.04 C42.8201933,16.2001626 43.1201625,16.7598066 42.9599999,17.29 C42.7998374,17.8201933 42.2401933,18.1201625 41.71,17.96 L33,15.34 L33,16.34 L54.5,25.53 C54.8743869,25.7000161 55.3129341,25.6418019 55.63,25.38 C55.9136822,25.1526483 56.0483739,24.7870566 55.98,24.43 C54.4199957,16.889843 54.4199957,9.11015704 55.98,1.57 Z M43.32,9.95 L41.32,10.62 C41.215958,10.6504958 41.1083857,10.667304 41,10.67 C40.5072625,10.673865 40.0851498,10.3182163 40.0053551,9.83196736 C39.9255604,9.34571844 40.2118698,8.87381585 40.68,8.72 L42.68,8.05 C43.2046705,7.87326891 43.7732688,8.15532952 43.95,8.68000002 C44.1267311,9.20467051 43.8446705,9.77326886 43.32,9.95 Z" fill-rule="nonzero" id="Shape"/>
<path d="M1.05,0.38 C0.802613935,0.380214363 0.562715091,0.464884544 0.37,0.62 C0.0863178181,0.847351711 -0.0483738672,1.21294343 0.02,1.57 C1.58000434,9.11015704 1.58000434,16.889843 0.02,24.43 C-0.0483738672,24.7870566 0.0863178181,25.1526483 0.37,25.38 C0.687065895,25.6418019 1.12561313,25.7000161 1.5,25.53 L23,16.34 L23,15.34 L14.29,17.96 C13.7598066,18.1201626 13.2001626,17.8201934 13.04,17.29 C12.8798374,16.7598066 13.1798066,16.2001626 13.71,16.04 L23,13.26 L23,12.82 L18.8,11.98 C18.2587609,11.8695431 17.9095431,11.3412391 18.02,10.8 C18.1304569,10.2587609 18.6587609,9.90954305 19.2,10.02 L23,10.78 L23,9.66 L1.5,0.47 C1.35718656,0.411330288 1.20439307,0.380771589 1.05,0.38 Z M12.05,8.68 C12.2305176,8.15864857 12.7956812,7.87829187 13.32,8.05 L15.32,8.72 C15.7881302,8.87381585 16.0744396,9.34571844 15.9946449,9.83196736 C15.9148502,10.3182163 15.4927375,10.673865 15,10.67 C14.8916143,10.667304 14.784042,10.6504958 14.68,10.62 L12.68,9.95 C12.1586486,9.76948236 11.8782919,9.20431884 12.05,8.68 Z" fill-rule="nonzero" id="Shape"/>
<path d="M28,6 C26.3431458,6 25,7.34314575 25,9 L25,17 C25,18.6568542 26.3431458,20 28,20 C29.6568542,20 31,18.6568542 31,17 L31,9 C31,7.34314575 29.6568542,6 28,6 Z" id="Path"/>
</g>
</g>
</svg>