<?xml version="1.0" encoding="iso-8859-1"?>
<!-- Uploaded to: SVG Repo, www.svgrepo.com, Generator: SVG Repo Mixer Tools -->
<svg fill="#000000" height="800px" width="800px" version="1.1" id="Layer_1" xmlns="http://www.w3.org/2000/svg" xmlns:xlink="http://www.w3.org/1999/xlink" 
	 viewBox="0 0 511.997 511.997" xml:space="preserve">
<g transform="translate(0 -1)">
	<g>
		<path d="M503.464,214.333h-83.093c-7.993-24.553-20.854-38.995-21.65-39.877c-1.69-1.852-4.053-2.876-6.622-2.782
			c-15.806,0.564-30.487,4.254-43.627,9.441c-0.734,0.182-1.447,0.461-2.121,0.84c-12.527,5.162-23.571,11.647-32.751,18.015
			c-0.658,0.338-1.276,0.774-1.846,1.294c-6.903,4.908-12.674,9.684-17.117,13.661c-9.393-10.807-23.224-17.658-38.637-17.658
			c-15.413,0-29.244,6.852-38.637,17.659c-4.439-3.973-10.206-8.745-17.103-13.649c-0.577-0.529-1.205-0.97-1.872-1.312
			c-9.175-6.363-20.212-12.844-32.73-18.004c-0.679-0.384-1.398-0.665-2.138-0.848c-13.138-5.186-27.818-8.877-43.621-9.444
			c-2.432-0.102-4.932,0.939-6.613,2.79c-0.804,0.884-13.711,15.371-21.701,39.874H8.533c-4.71,0-8.533,3.823-8.533,8.533v68.267
			c0,4.71,3.823,8.533,8.533,8.533h83.093c7.993,24.554,20.857,38.996,21.659,39.879c1.613,1.775,3.908,2.79,6.315,2.79
			c0.094,0,0.196,0,0.299-0.009c44.271-1.581,79.304-27.048,97.351-43.383c9.395,10.882,23.275,17.789,38.75,17.789
			c15.474,0,29.353-6.906,38.748-17.787c18.049,16.329,53.087,41.798,97.351,43.386h0.307c2.398,0,4.693-1.015,6.315-2.79
			c0.798-0.884,13.702-15.374,21.692-39.875h83.051c4.719,0,8.533-3.823,8.533-8.533v-68.267
			C511.997,218.156,508.183,214.333,503.464,214.333z M348.602,199.53l60.983,60.99c-0.001,0.174,0.005,0.348,0.003,0.522
			c-0.002,0.174-0.007,0.345-0.01,0.519c-0.017,1.128-0.05,2.255-0.102,3.383c-0.007,0.156-0.014,0.312-0.022,0.468
			c-0.327,6.487-1.231,12.956-2.703,19.335l-75.805-75.805C336.327,205.617,342.241,202.395,348.602,199.53z M405.686,224.966
			c0.011,0.045,0.016,0.091,0.028,0.136c0.338,1.246,0.651,2.498,0.946,3.752c0.022,0.095,0.045,0.189,0.067,0.284
			c0.29,1.252,0.56,2.508,0.806,3.768c0.015,0.074,0.027,0.151,0.041,0.226c0.097,0.501,0.176,1.006,0.266,1.509l-41.604-41.61
			c7.07-2.028,14.519-3.476,22.279-4.069C392.574,194.388,400.795,206.921,405.686,224.966z M316.67,218.803l84.198,84.206
			c-3.142,7.485-6.588,13.458-9.365,17.695l-86.268-86.252c-0.452-1.585-0.977-3.139-1.574-4.658
			C306.955,226.719,311.34,222.886,316.67,218.803z M206.765,234.452l-86.288,86.273c-2.78-4.224-6.227-10.188-9.368-17.701
			l84.223-84.223c5.33,4.082,9.716,7.913,13.01,10.986C207.744,231.308,207.217,232.864,206.765,234.452z M105.247,284.753
			c-0.277-1.202-0.537-2.407-0.774-3.614c-0.033-0.167-0.061-0.34-0.093-0.508c-0.18-0.94-0.344-1.882-0.5-2.825
			c-0.086-0.525-0.168-1.055-0.248-1.587c-0.086-0.573-0.164-1.148-0.241-1.722c-0.084-0.632-0.172-1.262-0.246-1.904
			c-0.016-0.134-0.026-0.269-0.042-0.403c-0.175-1.559-0.316-3.15-0.427-4.764c-0.031-0.45-0.065-0.9-0.09-1.35
			c-0.037-0.643-0.065-1.294-0.091-1.946c-0.026-0.673-0.047-1.345-0.061-2.018c-0.01-0.442-0.02-0.884-0.025-1.33
			c-0.001-0.087,0.002-0.174,0.002-0.261l60.987-60.987c6.361,2.865,12.276,6.086,17.656,9.412L105.247,284.753z M123.508,188.966
			c7.751,0.594,15.191,2.042,22.255,4.068l-30.865,30.869l-10.744,10.744c0.574-3.201,1.272-6.386,2.128-9.544
			c0.01-0.038,0.014-0.076,0.024-0.114C111.205,207.037,119.45,194.42,123.508,188.966z M17.067,282.6v-51.2h70.23
			c-1.055,5.921-1.731,12.245-1.903,18.928c-0.005,0.158-0.009,0.316-0.014,0.474c-0.016,0.738-0.03,1.476-0.034,2.223
			c-0.011,1.325-0.009,2.65,0.021,3.975c-0.029,1.284-0.033,2.568-0.023,3.852c0.003,0.518,0.014,1.031,0.023,1.545
			c0.014,0.712,0.035,1.424,0.061,2.136c0.223,6.367,0.893,12.403,1.906,18.066H17.067z M143.893,321.443l60.903-60.892v4.985
			c0,0.824,0.024,1.646,0.066,2.466c0.268,5.621,1.456,11.001,3.399,16.007C197.196,294.349,173.797,313.302,143.893,321.443z
			 M256,299.666c-12.433,0-23.328-6.68-29.296-16.638c-0.163-0.539-0.366-1.068-0.634-1.57c-2.429-4.516-3.815-9.162-4.133-13.835
			c-0.002-0.037-0.006-0.074-0.008-0.111c-0.033-0.505-0.042-1.011-0.05-1.516c-0.002-0.155-0.012-0.308-0.012-0.463v-17.067
			c0-0.144,0.009-0.287,0.011-0.431c0.007-0.521,0.018-1.041,0.052-1.56c0.003-0.044,0.007-0.086,0.01-0.13
			c0.12-1.737,0.4-3.468,0.813-5.189c0.087-0.29,0.155-0.584,0.21-0.88c0.716-2.659,1.777-5.293,3.185-7.884
			c0.231-0.421,0.409-0.917,0.563-1.432c5.97-9.952,16.862-16.627,29.29-16.627c12.365,0,23.212,6.605,29.201,16.473
			c0.166,0.547,0.373,1.083,0.649,1.591c1.411,2.593,2.475,5.232,3.19,7.897c0.048,0.253,0.109,0.504,0.179,0.752
			c0.589,2.421,0.902,4.86,0.911,7.306c0,0.038,0.003,0.075,0.003,0.114v17.067c0,0.037-0.003,0.073-0.003,0.11
			c-0.019,5.339-1.432,10.66-4.195,15.821c-0.222,0.413-0.396,0.899-0.546,1.403C279.442,292.913,268.499,299.666,256,299.666z
			 M307.139,267.944c0.04-0.802,0.062-1.606,0.062-2.412v-4.985l60.913,60.902c-29.906-8.141-53.306-27.098-64.375-37.442
			C305.689,278.985,306.876,273.585,307.139,267.944z M494.931,282.6h-70.23c1.011-5.672,1.673-11.714,1.879-18.085
			c0.021-0.59,0.039-1.179,0.051-1.767c0.01-0.539,0.019-1.079,0.022-1.623c0.008-1.123,0.001-2.242-0.023-3.358
			c-0.004-0.187,0.001-0.368-0.004-0.555c0.002-0.063,0-0.124,0.001-0.188c0-0.02,0.003-0.039,0.003-0.059
			c0-0.015-0.002-0.03-0.002-0.046c0.002-0.099,0-0.195,0.002-0.294c0.024-1.14,0.031-2.28,0.024-3.42
			c-0.003-0.492-0.011-0.981-0.019-1.47c-0.015-0.818-0.039-1.636-0.07-2.454c-0.022-0.593-0.04-1.189-0.069-1.776
			c-0.002-0.031-0.004-0.063-0.006-0.094c-0.286-5.615-0.922-10.96-1.826-16.012h70.268V282.6z"/>
	</g>
</g>
</svg>