<?xml version="1.0" encoding="iso-8859-1"?>
<!-- Uploaded to: SVG Repo, www.svgrepo.com, Generator: SVG Repo Mixer Tools -->
<svg fill="#000000" height="800px" width="800px" version="1.1" id="Layer_1" xmlns="http://www.w3.org/2000/svg" xmlns:xlink="http://www.w3.org/1999/xlink" 
	 viewBox="0 0 512 512" xml:space="preserve">
<g>
	<g>
		<path d="M506.249,206.365c-36.634-12.629-74.428-22.545-112.307-29.483h-0.009c-90.24-16.393-185.626-16.393-275.866,0h-0.009
			c-37.879,6.938-75.665,16.853-112.307,29.483C2.313,207.551,0,210.794,0,214.437v13.508v68.267c0,4.71,3.823,8.533,8.533,8.533
			h83.123c7.996,24.533,20.83,38.989,21.623,39.876c1.621,1.775,3.917,2.79,6.315,2.79h0.307
			c44.535-1.596,79.983-27.725,96.785-42.701c8.994,10.445,22.281,17.101,37.12,17.101h4.378c14.839,0,28.134-6.656,37.129-17.101
			c16.794,14.976,52.25,41.105,96.785,42.701h0.307c2.398,0,4.693-1.016,6.315-2.79c0.794-0.888,13.679-15.394,21.675-39.876h83.072
			c4.71,0,8.533-3.823,8.533-8.533v-68.267v-13.508C512,210.794,509.688,207.551,506.249,206.365z M17.067,287.679v-51.2h70.238
			c-0.683,3.857-1.161,7.927-1.493,12.117c-0.034,0.418-0.077,0.828-0.102,1.246c-0.273,3.849-0.427,7.782-0.333,11.887
			c0,0.119-0.017,0.23-0.008,0.35c-0.009,0.205,0.017,0.401,0.017,0.606c-0.068,3.84,0.068,7.526,0.307,11.127
			c0.051,0.759,0.12,1.51,0.179,2.27c0.35,3.994,0.811,7.902,1.468,11.597H17.067z M91.605,219.412H20.642
			c26.351-8.695,53.231-15.932,80.282-21.666C97.69,203.668,94.37,210.964,91.605,219.412z M279.1,273.113
			c3.337,3.336,3.337,8.73,0,12.066c-1.664,1.664-3.849,2.5-6.033,2.5c-2.185,0-4.369-0.836-6.033-2.5L256,274.145l-11.034,11.034
			c-1.664,1.664-3.849,2.5-6.033,2.5s-4.369-0.836-6.033-2.5c-3.337-3.337-3.337-8.73,0-12.066l11.034-11.034L232.9,251.045
			c-3.337-3.337-3.337-8.73,0-12.066s8.73-3.337,12.066,0L256,250.013l11.034-11.034c3.336-3.337,8.73-3.337,12.066,0
			c3.337,3.337,3.337,8.73,0,12.066l-11.034,11.034L279.1,273.113z M295.313,219.446c-8.994-10.445-22.289-17.101-37.129-17.101
			h-4.378c-14.839,0-28.126,6.656-37.12,17.101c-10.462-9.327-28.126-22.946-50.773-32.316c59.588-7.074,120.585-7.074,180.173,0
			C323.439,196.5,305.775,210.119,295.313,219.446z M420.344,219.412c-2.756-8.456-6.067-15.753-9.284-21.666
			c27.059,5.726,53.948,12.962,80.299,21.666H420.344z M494.933,287.679h-70.238c0.674-3.797,1.143-7.808,1.476-11.921
			c0.051-0.538,0.094-1.067,0.137-1.596c0.265-3.849,0.418-7.774,0.316-11.87c0.102-4.104-0.051-8.03-0.316-11.878
			c-0.051-0.742-0.111-1.493-0.179-2.236c-0.341-4.045-0.802-7.97-1.468-11.699h70.272V287.679z"/>
	</g>
</g>
</svg>