<?xml version="1.0" ?>

<!-- Uploaded to: SVG Repo, www.svgrepo.com, Generator: SVG Repo Mixer Tools -->
<svg fill="#000000" width="800px" height="800px" viewBox="0 0 512 512" version="1.1" xml:space="preserve" xmlns="http://www.w3.org/2000/svg" xmlns:xlink="http://www.w3.org/1999/xlink">

<g id="wine-cheers-heart-love-valentine">

<path d="M210.239,161.63c-11.85-11.979-13.889-31.229-3.614-44.605c12.415-16.161,35.529-17.243,49.375-3.245   c13.847-13.998,36.961-12.917,49.376,3.245c10.275,13.375,8.235,32.626-3.614,44.605l-32.5,32.855   c-7.318,7.398-19.204,7.398-26.522,0L210.239,161.63z M66.272,197.619c3.14,3.22,8.315,3.22,11.455,0l19.953-20.46   c7.017-7.196,8.387-18.749,2.104-26.593c-7.145-8.922-20.021-9.403-27.784-1.442c-7.763-7.96-20.639-7.479-27.784,1.442   c-6.283,7.845-4.913,19.397,2.104,26.593L66.272,197.619z M434.272,197.642c3.14,3.22,8.315,3.22,11.455,0l19.952-20.46   c7.017-7.196,8.387-18.748,2.104-26.593c-7.145-8.922-20.021-9.403-27.784-1.442c-7.763-7.96-20.639-7.479-27.784,1.442   c-6.283,7.845-4.913,19.398,2.104,26.593L434.272,197.642z M471.999,357.836l-45.246,45.247c-3.116,3.116-8.166,3.125-11.293,0.02   l-5.704-5.663c-6.268-6.224-6.286-16.355-0.04-22.601l5.72-5.719l0.002-0.002l-41.23-41.23c-8.093,4.397-17.194,6.745-26.662,6.745   c-14.953,0-29.012-5.82-39.586-16.398l-45.266-45.266c-3.152-3.152-5.149-6.989-6.178-11.021c-1.028,4.033-3.022,7.87-6.17,11.021   c-0.004,0-0.004,0-0.004,0l-45.27,45.266c-10.574,10.578-24.629,16.398-39.586,16.398c-9.467,0-18.566-2.348-26.658-6.744   L97.6,369.12v0l5.72,5.719c6.246,6.246,6.228,16.377-0.04,22.601l-5.704,5.663c-3.127,3.105-8.177,3.096-11.293-0.02   l-45.246-45.247c-3.132-3.132-3.123-8.213,0.021-11.333l5.704-5.664c6.258-6.214,16.363-6.196,22.599,0.041l5.6,5.6l0.004,0.004   l41.295-41.233c-11.442-21.204-8.251-48.279,9.627-66.173l45.258-45.297c9.07-9.063,24.887-9.063,33.949,0l45.25,45.25   c3.149,3.152,5.145,6.99,6.173,11.023c1.029-4.033,3.026-7.871,6.178-11.023l45.25-45.25c9.063-9.063,24.875-9.063,33.945,0   l45.258,45.297c17.877,17.894,21.069,44.968,9.63,66.171l41.295,41.233l0.002-0.002l5.6-5.6c6.236-6.236,16.341-6.254,22.6-0.041   l5.704,5.664C475.122,349.624,475.131,354.705,471.999,357.836z M239.027,250.344l-45.246-45.25   c-1.512-1.508-3.523-2.344-5.66-2.344c-2.141,0-4.148,0.828-5.656,2.344l-45.258,45.297c-2.677,2.678-4.722,5.713-6.479,8.869   c15.251-9.472,35.881-7.598,45.512-1.819c16.021,9.738,27.028,23.662,42.09,24.914l20.697-20.697   C242.145,258.539,242.145,253.461,239.027,250.344z M274.008,261.656l20.697,20.697c15.063-1.251,26.07-15.175,42.091-24.914   c9.63-5.778,30.259-7.653,45.51,1.818c-1.756-3.155-3.802-6.189-6.478-8.867l-45.258-45.297c-1.508-1.516-3.516-2.344-5.652-2.344   s-4.148,0.836-5.66,2.344l-45.25,45.25C270.891,253.461,270.891,258.539,274.008,261.656z"/>

</g>

<g id="Layer_1"/>

</svg>