<?xml version="1.0" encoding="iso-8859-1"?>
<!-- Uploaded to: SVG Repo, www.svgrepo.com, Generator: SVG Repo Mixer Tools -->
<svg fill="#000000" height="800px" width="800px" version="1.1" id="Layer_1" xmlns="http://www.w3.org/2000/svg" xmlns:xlink="http://www.w3.org/1999/xlink" 
	 viewBox="0 0 512 512" xml:space="preserve">
<g>
	<g>
		<polygon points="337.271,345.876 512,487.809 512,190.699 		"/>
	</g>
</g>
<g>
	<g>
		<polygon points="311.972,368.345 256,418.052 200.029,368.345 23.178,512 488.823,512 		"/>
	</g>
</g>
<g>
	<g>
		<polygon points="0,190.699 0,487.808 174.73,345.876 		"/>
	</g>
</g>
<g>
	<g>
		<path d="M62.934,0.001v201.931L256,373.394l193.066-171.462V0L62.934,0.001z M280.289,197.756
			c-10.06,7.78-24.289,17.016-24.289,17.016s-14.229-9.235-24.289-17.016c-15.535-12.016-45.397-36.237-45.397-60.994
			c0-22.025,17.854-39.879,39.878-39.879c11.858,0,22.502,5.181,29.807,13.398c7.305-8.216,17.948-13.398,29.807-13.398
			c22.025,0,39.878,17.854,39.878,39.879C325.685,161.519,295.824,185.74,280.289,197.756z"/>
	</g>
</g>
</svg>