<?xml version="1.0" encoding="iso-8859-1"?>
<!-- Uploaded to: SVG Repo, www.svgrepo.com, Generator: SVG Repo Mixer Tools -->
<svg fill="#000000" height="800px" width="800px" version="1.1" id="Layer_1" xmlns="http://www.w3.org/2000/svg" xmlns:xlink="http://www.w3.org/1999/xlink" 
	 viewBox="0 0 512 512" xml:space="preserve">
<g>
	<g>
		<path d="M0,83.134v345.731h512V83.134H0z M451.362,116.526L330.303,224.038c-10.387-13.116-26.435-21.554-44.427-21.554
			c-10.652,0-20.989,3.013-29.876,8.528c-8.888-5.516-19.224-8.528-29.876-8.528c-17.991,0-34.039,8.438-44.427,21.554
			L60.637,116.526H451.362z M309.152,259.151c0,11.777-13.128,27.902-39.022,47.929c-4.383,3.39-9.694,7.132-14.13,10.171
			c-4.437-3.039-9.748-6.781-14.13-10.171c-25.893-20.027-39.022-36.152-39.022-47.929c0-12.834,10.441-23.276,23.276-23.276
			c6.635,0,12.977,2.853,17.399,7.827L256,257.736l12.477-14.034c4.422-4.974,10.764-7.827,17.399-7.827
			C298.711,235.875,309.152,246.317,309.152,259.151z M33.391,136.987L169.49,257.855c-0.01,0.433-0.033,0.862-0.033,1.297
			c0,2.366,0.188,4.699,0.513,7.004L33.391,377.098V136.987z M63.73,395.474l120.371-97.778
			c10.214,13.679,24.293,25.705,37.34,35.795c10.508,8.127,24.864,17.46,25.47,17.853l9.09,5.899l9.09-5.899
			c0.605-0.393,14.961-9.726,25.47-17.853c13.047-10.091,27.126-22.117,37.34-35.795l120.371,97.778H63.73z M478.609,377.099
			L342.03,266.155c0.325-2.305,0.513-4.638,0.513-7.004c0-0.434-0.023-0.864-0.033-1.296l136.099-120.869V377.099z"/>
	</g>
</g>
</svg>