<?xml version="1.0" encoding="iso-8859-1"?>
<!-- Uploaded to: SVG Repo, www.svgrepo.com, Generator: SVG Repo Mixer Tools -->
<svg fill="#000000" height="800px" width="800px" version="1.1" id="Layer_1" xmlns="http://www.w3.org/2000/svg" xmlns:xlink="http://www.w3.org/1999/xlink" 
	 viewBox="0 0 512 512" xml:space="preserve">
<g>
	<g>
		<g>
			<path d="M449.066,126.478V0H62.934v126.48L0,175.535V512h512V175.535L449.066,126.478z M449.066,168.816l19.858,15.478
				l-19.858,17.636V168.816z M96.325,33.391h319.349l0.001,198.194L256,373.393L96.325,231.585V33.391z M62.934,168.815v33.115
				l-19.858-17.636L62.934,168.815z M33.391,220.353l141.338,125.522L33.391,460.684V220.353z M64.285,478.609l135.745-110.265
				L256,418.051l55.971-49.707l135.745,110.265H64.285z M478.609,460.684L337.27,345.876l141.339-125.523V460.684z"/>
			<path d="M265.089,268.085c0.606-0.393,14.929-9.705,25.413-17.813c24.154-18.681,51.879-43.997,51.879-74.2
				c0-31.195-25.38-56.575-56.574-56.575c-10.627,0-20.939,3.003-29.807,8.501c-8.87-5.498-19.181-8.501-29.807-8.501
				c-31.195,0-56.575,25.38-56.575,56.575c0.001,30.2,27.725,55.516,51.879,74.2c10.485,8.11,24.809,17.421,25.413,17.813
				l9.09,5.899L265.089,268.085z M241.924,223.861c-25.823-19.974-38.916-36.052-38.916-47.787
				c0.002-12.784,10.401-23.185,23.185-23.185c6.609,0,12.925,2.842,17.33,7.796L256,174.719l12.477-14.034
				c4.403-4.954,10.72-7.795,17.329-7.795c12.782,0,23.182,10.4,23.182,23.184c0,11.737-13.094,27.815-38.918,47.787
				c-4.363,3.376-9.652,7.102-14.073,10.131C251.581,230.967,246.296,227.243,241.924,223.861z"/>
		</g>
	</g>
</g>
</svg>