<?xml version="1.0" encoding="UTF-8"?>
<!DOCTYPE svg PUBLIC "-//W3C//DTD SVG 1.1//EN" "http://www.w3.org/Graphics/SVG/1.1/DTD/svg11.dtd">
<!-- Creator: CorelDRAW 2021 (64-Bit) -->
<svg xmlns="http://www.w3.org/2000/svg" xml:space="preserve" width="70mm" height="70mm" version="1.1" style="shape-rendering:geometricPrecision; text-rendering:geometricPrecision; image-rendering:optimizeQuality; fill-rule:evenodd; clip-rule:evenodd"
viewBox="0 0 7000 7000"
 xmlns:xlink="http://www.w3.org/1999/xlink"
 xmlns:xodm="http://www.corel.com/coreldraw/odm/2003">
 <defs>
  <style type="text/css">
   <![CDATA[
    .fil0 {fill:black;fill-rule:nonzero}
   ]]>
  </style>
 </defs>
 <g id="Warstwa_x0020_1">
  <metadata id="CorelCorpID_0Corel-Layer"/>
  <path class="fil0" d="M1388.76 4615.86c233.28,85.88 478.27,112.66 713.92,112.66 145.32,0 287.12,-10.17 420.32,-23.01 176.75,-16.69 332.31,-39.09 475.53,-67.78 101.16,80.35 216.87,144.21 345.42,188.22 86.67,30.4 178.76,51.43 274.81,64.88 -507.76,276.6 -967.4,403.37 -1399.99,386.91 -248.87,-9.72 -1071.64,-82.87 -1211.59,-615.78 -24.5,-93.27 -23.73,-169.89 -6.7,-242.43 113.35,77.53 238.01,141.31 388.24,196.33l0.04 0zm906.82 778.28c-27.2,0 -54.29,-0.5 -81.31,-1.57 -344.5,-13.41 -1162.62,-108.74 -1318.26,-701.42 -55.63,-211.95 -0.27,-360.97 67.89,-490.39 326.98,-622.03 1183.59,-794.35 1844.66,-829.37 243.84,-12.8 472.41,3.58 679.37,48.96 92.77,19.74 181.66,45.46 263.91,76.2 189.33,70.48 365.42,180.64 538.32,336.65 0,0 0,0.05 0,0.05 0.08,0.07 0.2,0.11 0.27,0.18 46.68,41.99 93.42,87.94 141.77,139.07 13.98,-115.79 8.73,-229.36 -17.79,-337.87 -1.72,-7.36 -2.21,-9.76 -2.94,-12.01 -72.04,-274.7 -263.27,-503.98 -554.01,-666.52 -224.26,-125.42 -501.13,-204.48 -800.64,-228.6 -153.66,-12.57 -311.39,-10.13 -469.47,6.06 -60.58,133.46 -142.26,271.57 -256.11,432.47 -11.2,15.82 -28.92,24.31 -46.97,24.31 -11.02,0 -22.1,-3.16 -31.89,-9.71 -149.63,-100.09 -267.47,-192.07 -366.22,-285.68 -603.63,223.84 -1061.48,628.12 -1227.74,1087.34 -69.99,194.92 -82.72,387.75 -37.8,572.95 52.38,215.84 183.41,409.73 378.83,560.72 435.06,338.45 1137.29,444.1 1832.85,275.89 380.62,-92.81 733.81,-262.82 1011.56,-484.49 -6.67,-0.03 -13.07,-0.64 -19.7,-0.76 -554.36,327.43 -1055.64,487.54 -1528.58,487.54zm519.04 -1907.91c-0.95,0.07 -1.83,0.15 -2.78,0.19 5.9,29.52 11.47,59.13 17.87,88.54 51.32,234.51 130.03,491.99 324.96,623.24 25.25,17.08 52.72,31.4 81.79,43.4 -3.46,-249.44 41.92,-476.44 138.96,-691.33 4.38,-9.86 9.48,-20.46 14.4,-30.86 -177.63,-32 -369.99,-44.08 -575.2,-33.18zm3223.62 -1434.36c-136.02,-183.76 -339.74,-313.57 -589.1,-375.44 -387.22,-96.97 -855.89,-26.56 -1301.55,182.62 312.58,-118.04 644.96,-159.8 951.17,-117.05 349.95,48.88 578.06,185.85 659.67,395.98 143.68,369.95 -61.72,845.78 -281.25,1140.79 -215.38,289.52 -517.71,542.24 -898.6,751.34 -14.67,8.04 -30.21,16 -46.29,24.15l-31.85 16.5c-17.26,9.07 -35.17,18.52 -53.72,27.28 -270.17,137.5 -500.07,225.97 -701.28,269.63 -96.47,21.03 -186.76,31.59 -270.01,31.59 -69.27,0 -133.62,-7.28 -192.83,-21.87 -70.59,-17.18 -135.33,-45.49 -192.21,-83.94 -223.08,-150.14 -312.42,-423.63 -368.81,-675.47 -32.2,288.91 28.5,553.06 178.8,755.91 44.08,59.39 94.3,112.7 149.2,158.38 95.48,80.05 207.12,142.22 331.97,185.05 183.57,64.27 391.75,87.71 619.21,69.46 266.35,-21.34 548.94,-101.16 817.24,-230.85 153.28,-73.88 303.09,-164.75 445.39,-270.17 864.43,-640.54 1212.01,-1642.61 774.85,-2233.89zm-4095.7 737.05c0.16,0.15 0.27,0.22 0.38,0.38 88.36,86.87 193.1,172.02 326.71,264.15 98.87,-143.87 170.23,-268.53 223,-389.08 98.68,-225.67 177.25,-607.7 -10.62,-735.76 -44.24,-30.02 -107.94,-36.72 -170.12,-17.98 -66.87,20.19 -139.37,68.24 -193.97,128.51 -17.37,19.09 -45.53,24.39 -68.58,12.65 -64.81,-32.84 -139.53,-51.47 -204.48,-51.47 -7.78,0 -15.36,0.26 -22.79,0.76 -64.92,4.69 -121.92,33.68 -152.44,77.57 -129.77,186.69 80.09,515.5 252.83,691.03 6.37,6.43 13.57,12.8 20.08,19.27l0 -0.03zm2452.9 -341.69c400.62,-218.19 831.15,-315.05 1249.23,-282.05 -89.5,-202.51 -353.31,-280.19 -561.83,-309.34 -332.54,-46.4 -698.87,13.19 -1031.98,168.1 -292.76,136.09 -557.1,348.5 -770.58,616.12 217.93,37.3 419.94,103.86 595.2,195.91 156.63,-154.99 330.9,-286.25 519.96,-388.7l0 -0.04z"/>
 </g>
</svg>
