<?xml version="1.0" encoding="iso-8859-1"?>
<!-- Uploaded to: SVG Repo, www.svgrepo.com, Generator: SVG Repo Mixer Tools -->
<svg fill="#000000" height="800px" width="800px" version="1.1" id="Layer_1" xmlns="http://www.w3.org/2000/svg" xmlns:xlink="http://www.w3.org/1999/xlink" 
	 viewBox="0 0 512 512" xml:space="preserve">
<g>
	<g>
		<path d="M393.001,118.871C360.055,48.708,288.725,0,206.222,0C92.511,0,0,92.511,0,206.222
			c0,80.624,46.43,153.064,118.999,186.906C151.943,463.292,223.275,512,305.778,512C419.489,512,512,419.489,512,305.778
			C512,225.152,465.57,152.714,393.001,118.871z M85.333,206.222c0,22.383,6.044,43.897,17.559,62.778
			c-2.199,12.086-3.337,24.395-3.337,36.777c0,8.771,0.555,17.414,1.623,25.9c-36.531-30.535-58.512-76.056-58.512-125.456
			c0-90.185,73.371-163.556,163.556-163.556s163.556,73.371,163.556,163.556c0,73.411-47.693,136.503-117.167,156.863
			c-10.938-10.156-18.975-23.39-22.713-38.316c55.36-11.039,97.213-59.991,97.213-118.547c0-66.658-54.231-120.889-120.889-120.889
			S85.333,139.564,85.333,206.222z M383.802,311.054c-2.608,38.946-33.838,70.162-72.788,72.751
			c21.16-12.513,40.125-28.786,55.725-48.105C373.045,327.892,378.738,319.647,383.802,311.054z M231.909,280.091
			c7.846-22.497,25.684-40.334,48.181-48.181C272.245,254.406,254.406,272.245,231.909,280.091z M200.986,128.195
			c-21.16,12.513-40.125,28.787-55.726,48.105c-6.305,7.808-11.998,16.053-17.062,24.646
			C130.807,162,162.035,130.785,200.986,128.195z M305.778,469.333c-90.185,0-163.556-73.371-163.556-163.556
			c0-73.409,47.693-136.503,117.167-156.863c10.938,10.156,18.975,23.39,22.713,38.316c-55.36,11.039-97.213,59.991-97.213,118.546
			c0,66.658,54.231,120.889,120.889,120.889s120.889-54.231,120.889-120.889c0-22.383-6.044-43.897-17.559-62.778
			c2.199-12.086,3.337-24.395,3.337-36.777c0-8.771-0.555-17.414-1.623-25.9c36.531,30.535,58.512,76.056,58.512,125.456
			C469.333,395.962,395.962,469.333,305.778,469.333z"/>
	</g>
</g>
</svg>