<?xml version="1.0" encoding="iso-8859-1"?>
<!-- Uploaded to: SVG Repo, www.svgrepo.com, Generator: SVG Repo Mixer Tools -->
<!DOCTYPE svg PUBLIC "-//W3C//DTD SVG 1.1//EN" "http://www.w3.org/Graphics/SVG/1.1/DTD/svg11.dtd">
<svg fill="#000000" height="800px" width="800px" version="1.1" id="Capa_1" xmlns="http://www.w3.org/2000/svg" xmlns:xlink="http://www.w3.org/1999/xlink" 
	 viewBox="0 0 368.696 368.696" xml:space="preserve">
<g>
	<g>
		<path d="M184.345,90.522c-1.971,0-3.9,0.801-5.301,2.19c-1.398,1.4-2.199,3.33-2.199,5.31c0,1.971,0.801,3.91,2.199,5.301
			c1.4,1.399,3.33,2.199,5.301,2.199c1.98,0,3.91-0.8,5.311-2.199c1.389-1.4,2.189-3.33,2.189-5.301c0-1.979-0.801-3.909-2.189-5.31
			C188.255,91.323,186.325,90.522,184.345,90.522z"/>
		<path d="M184.345,144.903c-1.971,0-3.9,0.8-5.301,2.189c-1.398,1.4-2.199,3.33-2.199,5.311c0,1.97,0.801,3.909,2.199,5.3
			c1.4,1.399,3.33,2.2,5.301,2.2c1.98,0,3.91-0.801,5.311-2.2c1.389-1.391,2.189-3.33,2.189-5.3c0-1.98-0.801-3.91-2.189-5.311
			C188.255,145.703,186.325,144.903,184.345,144.903z"/>
		<path d="M184.345,199.283c-1.971,0-3.9,0.8-5.301,2.199c-1.398,1.391-2.199,3.32-2.199,5.301c0,1.979,0.801,3.91,2.199,5.3
			c1.391,1.399,3.33,2.2,5.301,2.2c1.98,0,3.91-0.801,5.311-2.2c1.389-1.39,2.189-3.32,2.189-5.3c0-1.98-0.801-3.91-2.189-5.301
			C188.255,200.083,186.325,199.283,184.345,199.283z"/>
		<path d="M359.312,52.76L248.345,20.022V7.5c0-2.482-1.229-4.804-3.281-6.2c-2.049-1.395-4.658-1.688-6.971-0.777
			c0,0-43.566,17.213-43.875,17.388c-3.035-1.284-6.371-1.995-9.871-1.995c-3.498,0-6.834,0.711-9.871,1.995
			c-0.307-0.175-43.873-17.388-43.873-17.388c-2.309-0.91-4.92-0.618-6.971,0.777c-2.053,1.396-3.279,3.718-3.279,6.2v12.761
			L9.386,52.76c-3.977,1.163-6.256,5.328-5.094,9.304c1.162,3.975,5.326,6.261,9.305,5.093l35.059-10.254l44.301,107.695
			l-23.1,17.143c-1.623,1.205-2.691,3.016-2.963,5.02c-0.27,2.004,0.281,4.033,1.527,5.625l108.428,138.491v30.319
			c0,4.143,3.357,7.5,7.5,7.5s7.5-3.357,7.5-7.5v-30.319l108.426-138.491c1.248-1.592,1.799-3.621,1.527-5.625
			c-0.27-2.005-1.338-3.816-2.963-5.02l-23.1-17.143l44.305-107.695l35.057,10.254c3.977,1.166,8.141-1.117,9.303-5.093
			C365.567,58.088,363.286,53.923,359.312,52.76z M206.599,29.062l26.746-10.544v45.63l-26.746-10.544
			c2.016-3.641,3.166-7.823,3.166-12.271C209.765,36.886,208.614,32.703,206.599,29.062z M184.347,30.915
			c5.744,0,10.418,4.674,10.418,10.418c0,5.745-4.674,10.42-10.418,10.42c-5.744,0-10.418-4.675-10.418-10.42
			C173.929,35.589,178.603,30.915,184.347,30.915z M135.353,18.518l26.744,10.544c-2.018,3.641-3.168,7.823-3.168,12.271
			c0,4.448,1.15,8.631,3.168,12.271l-26.744,10.544V18.518z M84.976,189.199l21.607-16.035c2.756-2.046,3.771-5.701,2.467-8.876
			L63.132,52.668l48.965-14.321l57.727,259.227L84.976,189.199z M184.349,293.79L136.683,79.747l36.83-14.52
			c0.338-0.133,0.656-0.296,0.963-0.471c3.037,1.285,6.373,1.996,9.871,1.996c3.5,0,6.836-0.711,9.873-1.996
			c0.307,0.175,0.623,0.338,0.961,0.471l36.834,14.521L184.349,293.79z M259.647,164.288c-1.307,3.175-0.291,6.83,2.467,8.876
			l21.605,16.035l-84.848,108.373l48.893-219.54l0.557-2.502l8.281-37.184l48.963,14.321L259.647,164.288z"/>
	</g>
</g>
</svg>